<?xml version="1.0" encoding="UTF-8"?>
<svg xmlns="http://www.w3.org/2000/svg" xmlns:xlink="http://www.w3.org/1999/xlink" width="64pt" height="64pt" viewBox="0 0 64 64" version="1.1">
<defs>
<radialGradient id="radial0" gradientUnits="userSpaceOnUse" cx="87.34375" cy="84.65625" fx="87.34375" fy="84.65625" r="82.01175" gradientTransform="matrix(0.372093,0,0,0.372093,0,0)">
<stop offset="0" style="stop-color:rgb(68.627451%,93.333333%,100%);stop-opacity:1;"/>
<stop offset="0.193" style="stop-color:rgb(73.333333%,94.509804%,100%);stop-opacity:1;"/>
<stop offset="0.703" style="stop-color:rgb(84.313725%,97.254902%,100%);stop-opacity:1;"/>
<stop offset="1" style="stop-color:rgb(88.235294%,98.039216%,100%);stop-opacity:1;"/>
</radialGradient>
<linearGradient id="linear0" gradientUnits="userSpaceOnUse" x1="86" y1="175.62006" x2="86" y2="35.87006" gradientTransform="matrix(0.372093,0,0,0.372093,0,0)">
<stop offset="0" style="stop-color:rgb(8.235294%,36.078431%,87.058824%);stop-opacity:1;"/>
<stop offset="0.278" style="stop-color:rgb(12.156863%,49.803922%,89.803922%);stop-opacity:1;"/>
<stop offset="0.569" style="stop-color:rgb(15.294118%,61.176471%,92.156863%);stop-opacity:1;"/>
<stop offset="0.82" style="stop-color:rgb(17.254902%,68.627451%,93.72549%);stop-opacity:1;"/>
<stop offset="1" style="stop-color:rgb(18.039216%,70.980392%,94.117647%);stop-opacity:1;"/>
</linearGradient>
</defs>
<g id="surface10521081">
<path style=" stroke:none;fill-rule:nonzero;fill:url(#radial0);" d="M 59 20 L 60.5 20 C 62.667969 20 64.390625 18.003906 63.921875 15.757812 C 63.578125 14.121094 62.054688 13 60.386719 13 L 53 13 C 51.894531 13 51 12.105469 51 11 C 51 9.894531 51.894531 9 53 9 L 56.386719 9 C 58.054688 9 59.578125 7.878906 59.921875 6.242188 C 60.390625 3.996094 58.667969 2 56.5 2 L 8.5 2 C 6.574219 2 5 3.574219 5 5.5 C 5 7.425781 6.574219 9 8.5 9 L 10 9 C 11.105469 9 12 9.894531 12 11 C 12 12.105469 11.105469 13 10 13 L 4.613281 13 C 2.945312 13 1.421875 14.121094 1.078125 15.757812 C 0.609375 18.003906 2.332031 20 4.5 20 L 18 20 L 18 32 L 4.613281 32 C 2.945312 32 1.421875 33.121094 1.078125 34.757812 C 0.609375 37.003906 2.332031 39 4.5 39 L 5 39 C 6.105469 39 7 39.894531 7 41 C 7 42.105469 6.105469 43 5 43 L 4.5 43 C 2.332031 43 0.609375 44.996094 1.078125 47.242188 C 1.421875 48.878906 2.945312 50 4.613281 50 L 10 50 C 11.105469 50 12 50.894531 12 52 C 12 53.105469 11.105469 54 10 54 L 8.613281 54 C 6.945312 54 5.421875 55.121094 5.078125 56.757812 C 4.609375 59.003906 6.332031 61 8.5 61 L 55.5 61 C 57.425781 61 59 59.425781 59 57.5 C 59 55.574219 57.425781 54 55.5 54 L 55 54 C 53.894531 54 53 53.105469 53 52 C 53 50.894531 53.894531 50 55 50 L 59.386719 50 C 61.054688 50 62.578125 48.878906 62.921875 47.242188 C 63.390625 44.996094 61.667969 43 59.5 43 L 47 43 L 47 31 L 59.386719 31 C 61.054688 31 62.578125 29.878906 62.921875 28.242188 C 63.390625 25.996094 61.667969 24 59.5 24 L 59 24 C 57.894531 24 57 23.105469 57 22 C 57 20.894531 57.894531 20 59 20 Z M 59 20 "/>
<path style=" stroke:none;fill-rule:nonzero;fill:url(#linear0);" d="M 56.386719 36.488281 C 56.785156 34.722656 57 32.886719 57 31 C 57 17.195312 45.804688 6 32 6 C 30.113281 6 28.277344 6.214844 26.511719 6.613281 C 24.566406 5.585938 22.351562 5 20 5 C 12.269531 5 6 11.269531 6 19 C 6 21.351562 6.585938 23.566406 7.613281 25.511719 C 7.214844 27.277344 7 29.113281 7 31 C 7 44.804688 18.195312 56 32 56 C 33.886719 56 35.722656 55.785156 37.488281 55.386719 C 39.433594 56.414062 41.648438 57 44 57 C 51.730469 57 58 50.730469 58 43 C 58 40.648438 57.414062 38.433594 56.386719 36.488281 Z M 56.386719 36.488281 "/>
<path style=" stroke:none;fill-rule:nonzero;fill:rgb(100%,100%,100%);fill-opacity:1;" d="M 32.128906 46 C 23.789062 46 20 41.875 20 38.75 C 20 37.121094 21.136719 36 22.777344 36 C 26.316406 36 25.433594 41 32.128906 41 C 35.539062 41 38 39.46875 38 37.59375 C 38 35.988281 36.925781 35 34.65625 34.375 L 27.199219 32.5 C 21.261719 31 20 27.746094 20 24.621094 C 20 18.25 26.0625 16 31.621094 16 C 36.800781 16 43 18.621094 43 22.371094 C 43 24 41.738281 25 40.09375 25 C 37.0625 25 37.304688 21 31.238281 21 C 28.210938 21 26 22.25 26 24.253906 C 26 26.25 28.84375 26.875 30.988281 27.378906 L 36.550781 28.628906 C 42.609375 30 44 33.5 44 36.875 C 43.871094 42.121094 40.082031 46 32.128906 46 Z M 32.128906 46 "/>
<path style=" stroke:none;fill-rule:nonzero;fill:rgb(80%,80%,80%);fill-opacity:1;" d="M 36.910156 25.652344 L 36.910156 27.027344 L 32.828125 27.027344 L 32.828125 38.347656 L 31.160156 38.347656 L 31.160156 27.027344 L 27.089844 27.027344 L 27.089844 25.652344 Z M 36.910156 25.652344 "/>
</g>
</svg>
